<?xml version="1.0" standalone="no"?>
<!DOCTYPE svg PUBLIC "-//W3C//DTD SVG 20010904//EN"
 "http://www.w3.org/TR/2001/REC-SVG-20010904/DTD/svg10.dtd">
<svg version="1.0" xmlns="http://www.w3.org/2000/svg"
 width="514.000000pt" height="514.000000pt" viewBox="0 0 514.000000 514.000000"
 preserveAspectRatio="xMidYMid meet">
<metadata>
Created by potrace 1.11, written by Peter Selinger 2001-2013
</metadata>
<g transform="translate(0.000000,514.000000) scale(0.100000,-0.100000)"
fill="#000000" stroke="none">
<path d="M700 4503 c-14 -3 -32 -10 -40 -17 -23 -19 -110 -68 -110 -62 0 6
-26 -13 -77 -59 -47 -41 -47 -85 2 -187 20 -42 38 -83 39 -90 2 -7 6 -22 10
-33 13 -34 18 -49 22 -72 2 -13 7 -35 11 -50 8 -36 9 -294 1 -353 -13 -100
-69 -279 -124 -399 -38 -82 -125 -234 -186 -324 -34 -51 -37 -58 -21 -63 10
-3 26 -10 35 -15 10 -5 24 -9 32 -9 8 0 43 -12 78 -26 35 -15 81 -34 103 -43
113 -45 369 -181 420 -223 6 -5 46 -35 90 -69 44 -33 119 -100 167 -149 83
-86 178 -213 178 -238 0 -7 3 -12 8 -12 6 0 42 -71 63 -125 16 -42 22 -60 24
-65 0 -3 4 -14 7 -25 4 -11 9 -37 13 -59 3 -21 7 -41 9 -45 2 -3 7 -42 11 -86
l6 -80 -73 2 c-40 1 -80 2 -89 2 -11 1 -16 12 -18 43 -2 61 -8 94 -26 163 -9
33 -18 65 -19 70 -1 6 -18 42 -38 82 -67 132 -187 273 -323 379 -27 21 -52 41
-55 44 -3 3 -14 10 -25 17 -11 6 -56 34 -100 61 -95 59 -191 108 -300 152 -44
19 -82 36 -85 39 -3 3 -12 7 -20 8 -8 1 -53 15 -100 31 l-85 30 -19 -37 c-28
-52 -66 -151 -74 -191 -9 -45 -9 -248 0 -325 4 -33 10 -87 13 -120 8 -76 41
-279 61 -366 12 -51 14 -110 11 -250 -5 -199 1 -234 45 -262 76 -48 513 -95
676 -72 65 9 108 47 110 96 2 78 34 106 127 112 94 6 121 -18 127 -113 3 -73
36 -115 98 -124 70 -11 136 -17 195 -17 53 0 87 3 195 16 37 4 63 16 83 39 17
20 22 34 32 90 10 64 44 71 170 37 186 -52 346 -120 388 -165 29 -32 36 -50
40 -101 4 -55 58 -96 143 -108 22 -3 46 -8 54 -11 58 -19 283 -31 318 -17 38
16 62 59 66 123 2 29 7 61 11 70 8 21 65 48 90 43 11 -2 26 -4 33 -4 7 -1 24
-13 37 -27 21 -22 25 -37 25 -85 0 -118 35 -154 170 -175 81 -12 214 -11 280
4 112 24 138 53 145 157 3 56 9 73 28 93 46 46 155 23 163 -33 17 -119 45
-131 207 -86 147 40 228 94 243 159 22 100 41 119 145 147 81 21 105 12 115
-43 4 -20 11 -43 17 -49 5 -7 6 -13 1 -14 -5 0 7 -6 26 -13 29 -11 43 -10 95
6 65 20 157 60 177 77 7 6 27 22 45 36 40 32 69 79 88 141 15 49 15 274 1 399
-12 104 -17 141 -22 170 -3 17 -7 41 -9 55 -24 179 -36 225 -75 278 -41 57
-130 98 -250 116 -107 16 -208 26 -310 31 -171 7 -217 12 -343 39 -109 24
-380 108 -402 125 -5 5 -27 14 -47 20 -21 7 -38 17 -38 22 0 6 -5 7 -10 4 -6
-4 -21 0 -33 8 -26 17 -73 28 -114 28 -58 0 -84 -13 -230 -110 -67 -44 -128
-81 -136 -81 -62 0 -105 50 -91 106 9 36 10 37 122 113 111 76 125 93 107 127
-28 55 -97 90 -160 80 -19 -3 -63 -26 -98 -51 -117 -85 -150 -95 -206 -65 -12
6 -21 14 -21 18 -1 4 -3 23 -6 42 -6 44 14 70 106 130 36 24 84 58 107 76 l41
34 -28 67 c-15 38 -40 80 -54 95 -22 22 -31 25 -55 18 -25 -7 -77 -36 -91 -50
-20 -21 -107 -72 -130 -77 -38 -7 -86 27 -95 67 -9 41 15 77 78 120 29 19 54
37 57 41 3 3 25 18 50 33 71 42 97 68 108 108 6 21 9 43 8 50 -16 87 -36 118
-79 118 -36 0 -68 -17 -203 -106 -62 -41 -122 -74 -133 -74 -12 0 -35 7 -51
15 -36 18 -49 69 -28 109 15 29 215 169 229 160 5 -3 9 -1 9 3 0 5 29 26 65
46 71 41 98 73 101 121 3 44 -63 435 -81 473 -19 43 -59 67 -107 66 -41 -2
-204 -76 -243 -110 -74 -64 -105 -147 -108 -288 l-2 -100 -60 -12 c-33 -7 -85
-15 -115 -18 -30 -3 -84 -9 -120 -13 -36 -4 -258 -7 -495 -7 l-430 0 -1 45
c-2 46 -11 140 -21 199 -13 88 -91 292 -135 354 -28 40 -83 59 -138 50z"/>
</g>
</svg>
