<?xml version="1.0" standalone="no"?>
<!DOCTYPE svg PUBLIC "-//W3C//DTD SVG 20010904//EN"
 "http://www.w3.org/TR/2001/REC-SVG-20010904/DTD/svg10.dtd">
<svg version="1.0" xmlns="http://www.w3.org/2000/svg"
 width="520.000000pt" height="520.000000pt" viewBox="0 0 520.000000 520.000000"
 preserveAspectRatio="xMidYMid meet">
<metadata>
Created by potrace 1.11, written by Peter Selinger 2001-2013
</metadata>
<g transform="translate(0.000000,520.000000) scale(0.100000,-0.100000)"
fill="#000000" stroke="none">
<path d="M714 4495 c-16 -7 -60 -31 -97 -54 -37 -23 -73 -42 -80 -44 -16 -3
-67 -66 -68 -86 -3 -39 5 -69 31 -121 108 -215 129 -460 64 -725 -16 -67 -64
-207 -73 -215 -3 -3 -7 -12 -9 -20 -4 -23 -65 -145 -74 -148 -4 -2 -6 -7 -3
-11 2 -5 -7 -23 -20 -41 -14 -19 -25 -38 -25 -42 0 -5 -4 -14 -10 -21 -17 -21
-102 -152 -103 -160 -1 -4 34 -21 78 -36 335 -119 606 -273 803 -456 86 -80
200 -216 191 -229 -2 -3 3 -11 12 -18 42 -33 120 -215 144 -333 19 -95 29
-205 19 -206 -5 0 -45 -1 -89 -2 -88 -1 -80 -8 -86 73 -3 45 -26 156 -41 195
-16 44 -71 159 -78 165 -3 3 -17 21 -30 40 -13 19 -35 49 -49 66 -14 17 -33
40 -42 50 -8 10 -41 42 -72 70 -30 29 -53 55 -49 60 4 4 2 4 -4 1 -6 -3 -20 2
-30 11 -55 51 -342 228 -384 237 -3 1 -21 8 -40 17 -19 8 -60 26 -90 39 -30
12 -57 25 -60 28 -3 4 -12 7 -20 8 -8 0 -54 15 -101 31 l-87 30 -30 -66 c-67
-148 -85 -256 -68 -407 3 -27 10 -95 16 -150 12 -116 17 -150 30 -225 5 -30
12 -71 15 -90 3 -19 13 -65 21 -102 12 -52 14 -107 10 -251 -8 -273 -11 -269
289 -316 134 -20 364 -29 440 -16 65 11 105 52 105 109 0 67 37 95 134 100 83
4 106 -18 117 -107 5 -36 14 -75 21 -86 27 -43 86 -56 268 -56 256 0 295 17
315 138 8 52 37 69 95 56 221 -48 505 -170 473 -203 -4 -3 -2 -6 4 -6 6 0 17
-24 23 -53 7 -28 17 -60 22 -69 9 -20 62 -50 93 -55 11 -2 56 -10 100 -19 44
-8 130 -18 190 -20 97 -4 113 -3 131 14 31 27 43 55 48 111 6 69 13 86 39 99
36 19 71 21 105 6 38 -16 50 -41 53 -120 1 -32 6 -65 12 -72 5 -6 6 -12 3 -12
-19 0 44 -49 74 -58 85 -26 265 -36 345 -18 17 3 41 8 55 11 33 6 72 36 87 66
6 13 14 50 16 82 5 65 31 111 64 113 11 1 25 4 31 8 16 10 79 -19 91 -42 6
-12 11 -33 11 -49 1 -50 45 -86 96 -77 138 22 254 66 305 114 24 23 41 50 48
80 7 25 16 55 21 67 18 43 168 96 209 74 17 -10 39 -70 33 -93 -1 -4 11 -16
26 -26 25 -18 31 -19 82 -5 30 8 60 16 66 17 30 5 144 69 176 99 21 19 41 31
44 28 4 -3 4 -1 1 5 -4 7 0 17 8 24 17 14 44 83 49 130 3 19 5 37 6 40 9 34
-6 247 -31 445 -6 44 -13 94 -15 110 -2 17 -6 41 -9 55 -3 14 -8 43 -11 65 -9
58 -8 56 -32 106 -23 49 -68 94 -111 111 -42 16 -173 47 -221 52 -25 3 -67 8
-95 10 -27 3 -106 8 -175 11 -69 3 -145 7 -170 10 -87 11 -276 57 -390 95
-109 36 -153 54 -295 114 -117 50 -167 37 -354 -91 -106 -72 -135 -82 -180
-59 -35 19 -49 64 -31 107 12 27 76 77 93 71 5 -1 6 2 3 7 -5 8 6 16 27 20 7
1 26 16 76 61 49 44 39 77 -36 127 -45 30 -126 25 -168 -10 -40 -32 -135 -96
-153 -101 -33 -11 -87 11 -101 40 -27 60 -13 87 81 150 40 27 75 51 78 54 3 3
22 18 43 34 45 33 45 44 3 138 -17 38 -35 62 -54 72 -27 14 -33 14 -70 -7 -23
-12 -73 -44 -113 -70 -61 -41 -77 -48 -104 -43 -18 4 -40 15 -50 26 -25 27
-29 81 -7 105 18 21 158 125 168 125 19 0 95 67 106 94 16 38 13 108 -7 146
-36 70 -92 53 -302 -93 -64 -45 -76 -49 -110 -44 -39 7 -60 26 -70 65 -10 41
16 79 85 124 37 23 69 45 72 49 3 3 50 32 105 63 133 76 150 94 150 154 0 42
-7 103 -18 157 -3 11 -12 67 -21 125 -26 162 -42 212 -79 236 -18 11 -46 19
-62 18 -37 -2 -159 -50 -200 -78 -123 -85 -160 -163 -157 -338 1 -42 -2 -79
-6 -82 -4 -2 -27 -7 -52 -11 -25 -4 -47 -8 -51 -10 -3 -3 -37 -7 -75 -10 -38
-4 -82 -9 -99 -12 -41 -8 -935 -12 -936 -4 -1 9 -5 44 -13 140 -8 88 -41 229
-70 296 -37 88 -85 171 -108 188 -30 22 -86 28 -124 12z"/>
</g>
</svg>
